Coordinates
version=1
nRows=8
nColumns=40
inDegrees=yes

Units are S.I. units (second, meters, Newtons, ...)
If the header above contains a line with 'inDegrees', this indicates whether rotational values are in degrees (yes) or radians (no).

endheader
time	pelvis_tilt	pelvis_list	pelvis_rotation	pelvis_tx	pelvis_ty	pelvis_tz	hip_flexion_r	hip_adduction_r	hip_rotation_r	knee_angle_r	knee_angle_r_beta	ankle_angle_r	subtalar_angle_r	mtp_angle_r	hip_flexion_l	hip_adduction_l	hip_rotation_l	knee_angle_l	knee_angle_l_beta	ankle_angle_l	subtalar_angle_l	mtp_angle_l	lumbar_extension	lumbar_bending	lumbar_rotation	arm_flex_r	arm_add_r	arm_rot_r	elbow_flex_r	pro_sup_r	wrist_flex_r	wrist_dev_r	arm_flex_l	arm_add_l	arm_rot_l	elbow_flex_l	pro_sup_l	wrist_flex_l	wrist_dev_l
      4.26500000	    -10.32328716	      3.50639423	     -2.74554135	     -0.23777394	      1.19713079	     -0.88937409	     12.81498712	     -6.05611643	    -21.15443065	      9.81318165	      0.17127233	    -38.55603813	      0.00000000	      0.00000000	     11.08569968	     -0.25899077	    -19.25264138	      6.27458708	      0.10951220	    -38.74550313	      0.00000000	      0.00000000	     -7.08923355	     -4.59759602	     -4.95649221	    -21.48394552	    -42.49729476	     33.06117614	     89.84835934	     87.05927789	      0.00000000	      0.00000000	    -20.70989901	    -47.72988955	     47.68089898	     90.27952295	     87.23753534	      0.00000000	      0.00000000
      4.27000000	     -9.84449228	      3.46039818	     -2.91184973	     -0.23643894	      1.20427108	     -0.88833874	     11.99186110	     -5.82420092	    -21.11899843	      9.32463759	      0.16274563	    -38.45119260	      0.00000000	      0.00000000	     10.28541489	     -0.15061071	    -19.66122528	      5.82141526	      0.10160286	    -38.62342623	      0.00000000	      0.00000000	     -7.33469431	     -4.62582819	     -4.81591160	    -21.13653680	    -42.56211405	     33.70250341	     89.38327760	     87.05134006	      0.00000000	      0.00000000	    -20.62307933	    -47.75281316	     47.88283640	     90.17942019	     87.24266660	      0.00000000	      0.00000000
      4.27500000	     -9.37093806	      3.40962721	     -2.99291028	     -0.23491274	      1.21106342	     -0.88756384	     11.11927471	     -5.65670682	    -21.40309512	      8.82191482	      0.15397146	    -38.35865519	      0.00000000	      0.00000000	      9.52921687	     -0.06320591	    -20.26466225	      5.50671828	      0.09611037	    -38.51616868	      0.00000000	      0.00000000	     -7.54444362	     -4.62596275	     -4.75538893	    -20.86708094	    -42.77013912	     34.35347607	     89.17724449	     87.04591016	      0.00000000	      0.00000000	    -20.59413298	    -47.74364431	     47.86137878	     90.21110310	     87.23262316	      0.00000000	      0.00000000
      4.28000000	     -9.01576808	      3.35625690	     -3.08085771	     -0.23360392	      1.21748377	     -0.88675251	     10.45708093	     -5.53043640	    -22.00546025	      8.46808659	      0.14779599	    -38.17467250	      0.00000000	      0.00000000	      8.95017591	     -0.02599174	    -21.01140995	      5.25547068	      0.09172527	    -38.37960205	      0.00000000	      0.00000000	     -7.62697937	     -4.63776080	     -4.66884864	    -20.73039858	    -42.90384688	     34.76121174	     88.99184667	     87.04035916	      0.00000000	      0.00000000	    -20.64504383	    -47.73732124	     47.76991585	     90.26962945	     87.23264360	      0.00000000	      0.00000000
      4.28500000	     -8.48127003	      3.39098860	     -3.20240591	     -0.23247959	      1.22384932	     -0.88585136	      9.66132502	     -5.54656938	    -22.81688815	      8.23190851	      0.14367391	    -37.98603530	      0.00000000	      0.00000000	      8.21183397	      0.08798497	    -22.07860081	      5.05630911	      0.08824924	    -38.21487506	      0.00000000	      0.00000000	     -7.94612275	     -4.73453754	     -4.57546375	    -20.56532424	    -43.04563179	     35.08984822	     88.94315194	     87.04911401	      0.00000000	      0.00000000	    -20.63835964	    -47.80731521	     47.63829468	     90.43268798	     87.23747872	      0.00000000	      0.00000000
      4.29000000	     -8.09933552	      3.38507175	     -3.26404761	     -0.23118626	      1.22992028	     -0.88528616	      9.04407355	     -5.57604655	    -23.77486561	      8.13485075	      0.14197993	    -37.85195364	      0.00000000	      0.00000000	      7.65035168	      0.14205183	    -23.19090418	      4.96648573	      0.08668153	    -38.14233740	      0.00000000	      0.00000000	     -8.06623397	     -4.75881300	     -4.57203375	    -20.42849521	    -43.21296487	     35.32745760	     88.95349556	     87.04859004	      0.00000000	      0.00000000	    -20.69209841	    -47.74492955	     47.45588456	     90.52958113	     87.23312375	      0.00000000	      0.00000000
      4.29500000	     -7.84947828	      3.41631846	     -3.58800420	     -0.22987387	      1.23555428	     -0.88441785	      8.68438982	     -5.63846846	    -24.65574947	      8.17666410	      0.14270971	    -37.67397519	      0.00000000	      0.00000000	      7.21670595	      0.19427168	    -24.46616995	      4.85958421	      0.08481574	    -38.02618500	      0.00000000	      0.00000000	     -8.02082907	     -4.84272839	     -4.32345634	    -20.34658945	    -43.38729553	     35.58906430	     88.99342747	     87.04921050	      0.00000000	      0.00000000	    -20.86733248	    -47.63909092	     47.17641745	     90.56631511	     87.20996801	      0.00000000	      0.00000000
      4.30000000	     -7.69389155	      3.38366983	     -3.85391355	     -0.22843576	      1.24094542	     -0.88371811	      8.41152193	     -5.65285151	    -25.58826185	      8.24112660	      0.14383479	    -37.47486036	      0.00000000	      0.00000000	      6.88240474	      0.17866510	    -25.64729055	      4.82252324	      0.08416891	    -37.94042465	      0.00000000	      0.00000000	     -7.85246501	     -4.83924711	     -4.11041506	    -20.35196825	    -43.53780039	     35.63732387	     89.08583732	     87.03688765	      0.00000000	      0.00000000	    -21.07103374	    -47.49946375	     46.86815816	     90.60819177	     87.19794166	      0.00000000	      0.00000000
